# xmcd
#
# Track frame offsets:
#	150
#	6537
#	28179
#	55738
#	90093
#	109456
#	121938
#	145523
#	168030
#	188998
#	224959
#	234591
#	269802
#
# Disc length: 4503 seconds
#
# Revision: 1
# Processed by: cddbd v1.5.2PL0 Copyright (c) Steve Scherf et al.
# Submitted via: audiograbber 1.83.01
#
DISCID=bc11950d
DTITLE=Adorned Brood - Hiltia (Remastered)
DYEAR=2008
DGENRE=Folk Metal
TTITLE0=Intro
TTITLE1=For honour and land
TTITLE2=Hiltia
TTITLE3=Unehrenhaftes Feindesblut
TTITLE4=Furor teutonicus
TTITLE5=Donerhamer
TTITLE6=Undisclosed treasures of the mortal
TTITLE7=Adora
TTITLE8=Kissing the heathen amulet
TTITLE9=Die Rede des Erhabenen
TTITLE10=Outro
TTITLE11=Sons of the damned
TTITLE12=Video Interview
EXTD=
EXTT0=
EXTT1=
EXTT2=
EXTT3=
EXTT4=
EXTT5=
EXTT6=
EXTT7=
EXTT8=
EXTT9=
EXTT10=
EXTT11=
EXTT12=
PLAYORDER=
